External Loads File
version=1
nRows=54
nColumns=13
Range=5.000000e-03-10 seconds
endheader
time 	forceRightX 	forceRightY 	forceRightZ 	pointRightX 	pointRightY 	pointRightZ 	forceLeftX 	forceLeftY 	forceLeftZ 	pointLeftX 	pointLeftY 	pointLeftZ 		
0.005000 -33.494619 196.694779 -0.000000 0.374215 0.451329 -0.119154 -13.535165 256.211056 -0.000000 0.125439 0.220279 -0.358580
0.010000 -32.599438 197.233277 -0.000000 0.374207 0.451321 -0.119138 -12.994267 256.752053 -0.000000 0.125434 0.220292 -0.358589
0.015000 -31.821532 197.696441 -0.000000 0.374194 0.451321 -0.119130 -12.517852 257.242208 -0.000000 0.125455 0.220278 -0.358577
0.020000 -31.898307 197.933942 -0.000000 0.374185 0.451415 -0.119063 -13.010102 257.587313 -0.000000 0.125419 0.218738 -0.358584
0.025000 -30.699428 198.268400 -0.000000 0.374224 0.451440 -0.119100 -11.673786 257.893260 -0.000000 0.125086 0.220251 -0.359499
0.030000 -30.487215 198.337272 -0.000000 0.374230 0.451428 -0.119117 -11.462166 258.010043 -0.000000 0.125158 0.220304 -0.359048
0.035000 -30.417680 198.287658 -0.000000 0.374239 0.451430 -0.119114 -11.327490 258.002791 -0.000000 0.125149 0.220308 -0.359056
0.040000 -30.421084 198.157011 -0.000000 0.374247 0.451407 -0.119120 -11.250799 257.895271 -0.000000 0.125162 0.220330 -0.359043
0.045000 -30.459788 197.986013 -0.000000 0.374264 0.451392 -0.119127 -11.240638 257.709956 -0.000000 0.125142 0.220336 -0.359053
0.050000 -30.521544 197.811365 -0.000000 0.374281 0.451380 -0.119128 -11.307059 257.468871 -0.000000 0.125146 0.220362 -0.359039
0.055000 -30.581193 197.663746 -0.000000 0.374307 0.451364 -0.119130 -11.427757 257.192610 -0.000000 0.125133 0.220379 -0.359042
0.060000 -30.598088 197.567383 -0.000000 0.374334 0.451306 -0.119136 -11.562251 256.899663 -0.000000 0.125123 0.220404 -0.359038
0.065000 -30.582219 197.526331 -0.000000 0.374350 0.451290 -0.119139 -11.725971 256.606853 -0.000000 0.125100 0.220427 -0.359042
0.070000 -30.479898 197.533459 -0.000000 0.374404 0.451258 -0.119142 -11.823550 256.331473 -0.000000 0.125081 0.220464 -0.359041
0.075000 -30.369658 197.540713 -0.000000 0.374428 0.451247 -0.119138 -11.904285 256.074547 -0.000000 0.125065 0.220488 -0.359028
0.080000 -30.243654 197.509706 -0.000000 0.374480 0.451228 -0.119140 -11.899603 255.840376 -0.000000 0.125030 0.220513 -0.359028
0.085000 -30.173517 197.408493 -0.000000 0.374515 0.451214 -0.119137 -11.866515 255.633427 -0.000000 0.125021 0.220549 -0.359020
0.090000 -30.138993 197.243884 -0.000000 0.374547 0.451189 -0.119124 -11.770780 255.469022 -0.000000 0.124981 0.220587 -0.359017
0.095000 -30.174369 197.025057 -0.000000 0.374585 0.451174 -0.119130 -11.662547 255.356408 -0.000000 0.124971 0.220620 -0.359006
0.100000 -30.258873 196.769712 -0.000000 0.374628 0.451166 -0.119123 -11.528332 255.291299 -0.000000 0.124951 0.220657 -0.359005
0.105000 -30.399407 196.493851 -0.000000 0.374668 0.451141 -0.119142 -11.395545 255.248928 -0.000000 0.124942 0.220673 -0.358993
0.110000 -30.570177 196.221719 -0.000000 0.374699 0.451130 -0.119138 -11.251357 255.200669 -0.000000 0.124914 0.220722 -0.358988
0.115000 -30.771523 195.971860 -0.000000 0.374737 0.451099 -0.119137 -11.124609 255.122991 -0.000000 0.124887 0.220734 -0.358992
0.120000 -30.978239 195.762757 -0.000000 0.374762 0.451078 -0.119141 -11.020996 255.003822 -0.000000 0.124880 0.220765 -0.358983
0.125000 -31.169598 195.602662 -0.000000 0.374785 0.451058 -0.119135 -10.952023 254.837804 -0.000000 0.124913 0.220784 -0.358979
0.130000 -31.289211 195.488430 -0.000000 0.374802 0.451042 -0.119142 -10.873094 254.626933 -0.000000 0.124909 0.220811 -0.358988
0.135000 -31.337293 195.399538 -0.000000 0.374818 0.451028 -0.119140 -10.804504 254.380049 -0.000000 0.124875 0.220826 -0.358995
0.140000 -31.345246 195.318779 -0.000000 0.374836 0.451011 -0.119131 -10.798732 254.117875 -0.000000 0.124924 0.220831 -0.358976
0.145000 -31.241690 195.255376 -0.000000 0.374850 0.450998 -0.119124 -10.755606 253.872920 -0.000000 0.124887 0.220852 -0.358988
0.150000 -31.123049 195.196089 -0.000000 0.374865 0.450989 -0.119132 -10.761876 253.662972 -0.000000 0.124928 0.220858 -0.358987
0.155000 -30.969147 195.150660 -0.000000 0.374866 0.450975 -0.119137 -10.730291 253.500381 -0.000000 0.124936 0.220885 -0.358979
0.160000 -30.836089 195.117996 -0.000000 0.374873 0.450968 -0.119125 -10.679800 253.382023 -0.000000 0.124933 0.220898 -0.358974
0.165000 -30.741695 195.096457 -0.000000 0.374885 0.450949 -0.119133 -10.604822 253.304126 -0.000000 0.124935 0.220910 -0.358975
0.170000 -30.701379 195.076992 -0.000000 0.374885 0.450921 -0.119128 -10.525118 253.267280 -0.000000 0.124946 0.220916 -0.358972
0.175000 -30.680888 195.056507 -0.000000 0.374902 0.450918 -0.119132 -10.416429 253.282589 -0.000000 0.124933 0.220937 -0.358984
0.180000 -30.674840 195.029235 -0.000000 0.374914 0.450898 -0.119135 -10.290820 253.367130 -0.000000 0.124932 0.220962 -0.358975
0.185000 -30.672417 194.997050 -0.000000 0.374939 0.450875 -0.119125 -10.143611 253.531045 -0.000000 0.124927 0.220981 -0.358969
0.190000 -30.674943 194.970425 -0.000000 0.374955 0.450853 -0.119126 -9.980192 253.767539 -0.000000 0.124919 0.221014 -0.358966
0.195000 -30.684691 194.961078 -0.000000 0.374971 0.450814 -0.119126 -9.797789 254.065313 -0.000000 0.124914 0.221051 -0.358972
0.200000 -30.736147 194.963042 -0.000000 0.374995 0.450791 -0.119126 -9.629312 254.408796 -0.000000 0.124905 0.221070 -0.358964
0.205000 -30.841687 194.957082 -0.000000 0.375017 0.450756 -0.119111 -9.486440 254.765950 -0.000000 0.124893 0.221088 -0.358976
0.210000 -31.037336 194.910342 -0.000000 0.375028 0.450743 -0.119104 -9.437429 255.082362 -0.000000 0.124877 0.221109 -0.358968
0.215000 -31.290250 194.803806 -0.000000 0.375046 0.450719 -0.119111 -9.496004 255.300842 -0.000000 0.124859 0.221142 -0.358975
0.220000 -31.589608 194.628421 -0.000000 0.375060 0.450697 -0.119112 -9.707676 255.385426 -0.000000 0.124843 0.221163 -0.358961
0.225000 -31.875471 194.399157 -0.000000 0.375080 0.450664 -0.119099 -10.008375 255.350584 -0.000000 0.124819 0.221184 -0.358966
0.230000 -32.136385 194.137033 -0.000000 0.375092 0.450646 -0.119108 -10.352764 255.247672 -0.000000 0.124816 0.221207 -0.358952
0.235000 -32.306372 193.882343 -0.000000 0.375093 0.450609 -0.119102 -10.613185 255.133375 -0.000000 0.124765 0.221242 -0.358968
0.240000 -32.435016 193.658884 -0.000000 0.375116 0.450593 -0.119106 -10.822106 255.035564 -0.000000 0.124776 0.221268 -0.358955
0.245000 -32.505508 193.489074 -0.000000 0.375134 0.450574 -0.119106 -10.932528 254.956541 -0.000000 0.124773 0.221286 -0.358960
0.250000 -32.519123 193.369196 -0.000000 0.375159 0.450554 -0.119103 -10.930489 254.872112 -0.000000 0.124737 0.221316 -0.358962
0.255000 -32.530394 193.269907 -0.000000 0.375177 0.450526 -0.119112 -10.884958 254.749193 -0.000000 0.124732 0.221337 -0.358954
0.260000 -32.529421 193.168920 -0.000000 0.375198 0.450489 -0.119118 -10.784178 254.576186 -0.000000 0.124722 0.221376 -0.358953
0.265000 -32.553326 193.042289 -0.000000 0.375222 0.450460 -0.119105 -10.674773 254.364203 -0.000000 0.124697 0.221396 -0.358966
0.270000 -32.616807 192.882595 -0.000000 0.375238 0.450440 -0.119108 -10.576020 254.143532 -0.000000 0.124688 0.221421 -0.358961
